# AST/ASF file generated using VICON BodyLanguage
# -----------------------------------------------
:version 1.10
:name VICON
:units
  mass 1.0
  length 0.45
  angle deg
:documentation
   .ast/.asf automatically generated from VICON data using
   VICON BodyBuilder and BodyLanguage model FoxedUp or BRILLIANT.MOD
:root
   order TX TY TZ RX RY RZ
   axis XYZ
   position 0 0 0  
   orientation 0 -0 0 
:bonedata
  begin
     id 1 
     name lhipjoint
     direction 0.500677 -0.737119 0.453848 
     length 2.34727 
     axis 0 -0 0  XYZ
  end
  begin
     id 2 
     name lfemur
     direction 0.34202 -0.939693 0  
     length 7.53653  
     axis 0 -0 20  XYZ
    dof rx ry rz
    limits (-160.0 20.0)
           (-70.0 70.0)
           (-60.0 70.0)
  end
  begin
     id 3 
     name ltibia
     direction 0.34202 -0.939693 0   
     length 6.85572   
     axis 0 -0 20   XYZ
    dof rx
    limits (-10.0 170.0)
  end
  begin
     id 4 
     name lfoot
     direction 0.155313 -0.426718 0.890949   
     length 2.18324   
     axis -90 -1.13533e-015 20   XYZ
    dof rx rz
    limits (-45.0 90.0)
           (-70.0 20.0)
  end
  begin
     id 5 
     name ltoes
     direction 1.53474e-011 -4.21647e-011 1   
     length 1.06748   
     axis -90 -1.13533e-015 20   XYZ
    dof rx
    limits (-90.0 20.0)
  end
  begin
     id 6 
     name rhipjoint
     direction -0.632471 -0.659587 0.406111   
     length 2.62319  
     axis 0 -0 0  XYZ 
  end
  begin
     id 7 
     name rfemur
     direction -0.34202 -0.939693 0   
     length 7.21735   
     axis 0 -0 -20   XYZ
    dof rx ry rz
    limits (-160.0 20.0)
           (-70.0 70.0)
           (-70.0 60.0)
  end
  begin
     id 8 
     name rtibia
     direction -0.34202 -0.939693 0   
     length 7.02558   
     axis 0 -0 -20   XYZ
    dof rx
    limits (-10.0 170.0)
 end
 begin
     id 9 
     name rfoot
     direction -0.16057 -0.441164 0.882945   
     length 2.10014  
     axis -90 1.13533e-015 -20   XYZ
    dof rx rz
    limits (-45.0 90.0)
           (-20.0 70.0)
  end
  begin
     id 10 
     name rtoes
     direction -1.53553e-011 -4.2192e-011 1   
     length 1.02554   
     axis -90 1.13533e-015 -20   XYZ
    dof rx
    limits (-90.0 20.0)
  end
  begin
     id 11 
     name lowerback
     direction 0.0401429 0.998861 -0.0258085   
     length 1.80848   
     axis 0 -0 0   XYZ
    dof rx ry rz
    limits (-20.0 45.0)
           (-30.0 30.0)
           (-30.0 30.0)
  end
  begin
     id 12 
     name upperback
     direction -0.0130978 0.999914 -0.000352645   
     length 1.8116   
     axis 0 -0 0   XYZ
    dof rx ry rz
    limits (-20.0 45.0)
           (-30.0 30.0)
           (-30.0 30.0)
  end
  begin
     id 13 
     name thorax
     direction -0.0300198 0.999453 0.0138573   
     length 1.81778   
     axis 0 -0 0   XYZ
    dof rx ry rz
    limits (-20.0 45.0)
           (-30.0 30.0)
           (-30.0 30.0)
  end
  begin
     id 14 
     name lowerneck
     direction -0.0401726 0.999191 -0.00173647   
     length 2.10594   
     axis 0 -0 0   XYZ
    dof rx ry rz
    limits (-20.0 45.0)
           (-30.0 30.0)
           (-30.0 30.0)
  end
  begin
     id 15 
     name upperneck
     direction 0.0119835 0.998501 0.0534085   
     length 2.07325   
     axis 0 -0 0   XYZ
    dof rx ry rz
    limits (-20.0 45.0)
           (-30.0 30.0)
           (-30.0 30.0)
  end
  begin
     id 16
     name head
     direction 0.00628309 0.999826 0.0175921  
     length 2.15096  
     axis 0 -0 0   XYZ
    dof rx ry rz
    limits (-20.0 45.0)
           (-30.0 30.0)
           (-30.0 30.0)
  end
  begin
     id 17 
     name lclavicle
     direction 0.895501 0.429681 -0.115981  
     length 4.18092  
     axis 0 -0 0   XYZ
    dof ry rz
    limits (-20.0 10.0)
           (0.0 20.0)
  end
  begin
     id 18 
     name lhumerus
     direction 1 -4.48961e-011 -3.38433e-028   
     length 5.77237   
     axis 180 -30 -90   XYZ
    dof rx ry rz
    limits (-60.0 90.0)
           (-90.0 90.0)
           (-90.0 90.0)
  end
  begin
     id 19
     name lradius
     direction 1 -4.4901e-011 1.11983e-026   
     length 2.91878   
     axis 180 -30 -90   XYZ
    dof rx
    limits (-10.0 170.0)
  end
  begin
     id 20
     name lwrist
     direction 1 -4.48934e-011 1.88176e-026   
     length 1.45939   
     axis -1.23311e-014 90 90   XYZ
    dof ry
    limits (-180.0 0.0)
 end
  begin
     id 21 
     name lhand
     direction 1 -4.4895e-011 3.76352e-026   
     length 1.06566   
     axis -2.40147e-014 90 90   XYZ
    dof rx rz
    limits (-90.0 90.0)
           (-45.0 45.0)
  end
  begin
     id 22 
     name lfingers
     direction 1 -4.49005e-011 7.52705e-026   
     length 0.859162   
     axis -4.80295e-014 90 90   XYZ
    dof rx
    limits (0.0 90.0)
  end
  begin
     id 23
     name lthumb
     direction 0.707107 -6.34885e-011 0.707107   
     length 1.23359   
     axis -90 45 -9.86935e-015   XYZ
    dof rx rz
    limits (-45.0 45.0)
           (-45.0 45.0)
  end
  begin
     id 24 
     name rclavicle
     direction -0.91006 0.40451 -0.0903492   
     length 4.23293  
     axis 0 -0 0   XYZ 
    dof ry rz
    limits (-10.0 20.0)
           (-20.0 0.0)
  end
  begin
     id 25 
     name rhumerus
     direction -1 -4.4897e-011 1.7415e-027  
     length 5.49854   
     axis 180 30 90   XYZ
    dof rx ry rz
    limits (-90.0 60.0)
           (-90.0 90.0)
           (-90.0 90.0)
  end
  begin
     id 26 
     name rradius
     direction -1 -4.48963e-011 1.21259e-026   
     length 3.1186   
     axis 180 30 90   XYZ
    dof rx
    limits (-10.0 170.0)
  end
  begin
     id 27 
     name rwrist
     direction -1 -4.48967e-011 1.88176e-026   
     length 1.5593   
     axis -1.23311e-014 -90 -90   XYZ
    dof ry
    limits (-180.0 0.0)
  end
  begin
     id 28
     name rhand
     direction -1 -4.4895e-011 3.76352e-026   
     length 0.71207   
     axis -2.40147e-014 -90 -90   XYZ
    dof rx rz
    limits (-90.0 90.0)
           (-45.0 45.0)
  end
  begin
     id 29
     name rfingers
     direction -1 -4.49005e-011 7.52705e-026   
     length 0.574089   
     axis -4.80295e-014 -90 -90   XYZ
    dof rx
    limits (0.0 90.0)
  end
  begin
     id 30
     name rthumb
     direction -0.707107 -6.34982e-011 0.707107   
     length 0.824281   
     axis -90 -45 9.86935e-015   XYZ
    dof rx rz
    limits (-45.0 45.0)
           (-45.0 45.0)
  end
:hierarchy
  begin
    root lhipjoint rhipjoint lowerback
    lhipjoint lfemur
    lfemur ltibia
    ltibia lfoot
    lfoot ltoes
    rhipjoint rfemur
    rfemur rtibia
    rtibia rfoot
    rfoot rtoes
    lowerback upperback
    upperback thorax
    thorax lowerneck lclavicle rclavicle
    lowerneck upperneck
    upperneck head
    lclavicle lhumerus
    lhumerus lradius
    lradius lwrist
    lwrist lhand lthumb
    lhand lfingers
    rclavicle rhumerus
    rhumerus rradius
    rradius rwrist
    rwrist rhand rthumb
    rhand rfingers
  end

#!OML:ASF C:\ViconDB\ViconDB\414\Spring2016\042216\male.ASF
:FULLY-SPECIFIED
:DEGREES
237
root -5.97255 16.8229 8.39776 -189.52 71.5497 -192.081
lowerback 14.5332 -2.58779 6.90231
upperback 2.28096 -2.29119 -1.19724
thorax -6.04886 -1.22312 -4.73987
lowerneck 0.596426 7.90716 -3.43264
upperneck -20.0099 11.0035 -2.62924
head -6.2252 6.08402 -0.912401
rclavicle 4.23411e-014 3.18055e-015
rhumerus -18.6433 -13.0668 -42.0951
rradius 39.6057
rwrist 11.1748
rhand -7.35993 -32.6114
rfingers 7.12502
rthumb 18.5246 -61.7494
lclavicle 4.23411e-014 3.18055e-015
lhumerus -33.2156 36.7392 20.2446
lradius 48.8628
lwrist 16.3657
lhand -40.0081 15.1787
lfingers 7.12502
lthumb -12.9756 44.7552
rfemur 2.38031 11.7126 26.4999
rtibia 23.7038
rfoot -21.115 -10.5764
rtoes -15.0711
lfemur -79.6497 5.72996 -17.0916
ltibia 106.155
lfoot -27.4119 20.5884
ltoes -9.97546
238
root -5.73939 16.9092 8.38164 -188.349 71.2377 -191.115
lowerback 13.6658 -2.35183 6.82182
upperback 2.08686 -2.07672 -1.30314
thorax -5.74942 -1.1223 -4.86544
lowerneck 0.167742 7.76218 -3.44842
upperneck -19.2992 10.7695 -2.70621
head -5.921 5.96034 -0.872843
rclavicle 9.73051e-014 0
rhumerus -18.3105 -13.8458 -41.4709
rradius 40.2802
rwrist 10.1372
rhand -7.20203 -33.0562
rfingers 7.12502
rthumb 18.6765 -62.1796
lclavicle 9.73051e-014 0
lhumerus -32.2402 36.858 19.1169
lradius 49.6252
lwrist 16.9887
lhand -39.7619 15.0529
lfingers 7.12502
lthumb -12.7382 44.6443
rfemur 5.22407 12.9595 27.4725
rtibia 19.352
rfoot -18.731 -11.5915
rtoes -15.3692
lfemur -80.0309 5.44318 -18.0088
ltibia 106.457
lfoot -27.6792 20.0118
ltoes -10.2399
239
root -5.49926 17.0055 8.3629 -186.997 70.8213 -190.068
lowerback 12.6679 -2.17095 6.68359
upperback 1.87169 -1.94601 -1.35128
thorax -5.40509 -1.05958 -4.87811
lowerneck -0.377574 7.60913 -3.64127
upperneck -18.6016 10.5419 -2.71431
head -5.61804 5.84705 -0.78293
rclavicle 3.11098e-014 -2.8625e-014
rhumerus -17.8576 -14.1895 -40.7533
rradius 41.0059
rwrist 8.79652
rhand -7.32267 -33.2327
rfingers 7.12502
rthumb 18.5605 -62.3673
lclavicle 3.11098e-014 -2.8625e-014
lhumerus -31.3885 36.9502 17.9189
lradius 50.262
lwrist 17.332
lhand -39.5554 14.5766
lfingers 7.12502
lthumb -12.5392 44.1803
rfemur 8.57004 13.7713 28.3972
rtibia 13.6399
rfoot -15.0424 -12.3182
rtoes -16.6802
lfemur -80.4766 5.10378 -18.9815
ltibia 106.817
lfoot -27.9324 19.2343
ltoes -10.5919
240
root -5.26023 17.13 8.33826 -185.864 70.1602 -189.17
lowerback 11.6419 -2.10943 6.61335
upperback 1.73281 -1.96436 -1.47109
thorax -4.9871 -1.0656 -4.97928
lowerneck -0.908122 7.45094 -3.88945
upperneck -18.0313 10.337 -2.60036
head -5.36901 5.74299 -0.656179
rclavicle 3.97569e-015 -3.97569e-015
rhumerus -17.4033 -14.218 -40.0219
rradius 41.8083
rwrist 7.24937
rhand -7.6394 -33.4969
rfingers 7.12502
rthumb 18.2558 -62.6603
lclavicle 3.97569e-015 -3.97569e-015
lhumerus -30.5377 36.9044 16.6624
lradius 50.9612
lwrist 17.6318
lhand -39.2603 14.6505
lfingers 7.12502
lthumb -12.2546 44.2715
rfemur 13.8975 12.2744 28.6475
rtibia 3.57792
rfoot -8.68475 -10.3412
rtoes -19.4378
lfemur -80.6187 4.36747 -19.9785
ltibia 107.018
lfoot -28.1096 17.7774
ltoes -10.1184
241
root -5.02284 17.2801 8.30789 -184.787 69.4502 -188.377
lowerback 10.6023 -2.11243 6.46283
upperback 1.66989 -2.06248 -1.37673
thorax -4.48003 -1.10085 -4.79703
lowerneck -1.62432 7.27009 -4.7944
upperneck -17.6215 10.1268 -2.40444
head -5.18153 5.68005 -0.403692
rclavicle 3.34952e-014 -2.18663e-014
rhumerus -16.481 -13.9193 -38.841
rradius 42.457
rwrist 6.46954
rhand -7.15631 -33.3729
rfingers 7.12502
rthumb 18.7205 -62.4921
lclavicle 3.34952e-014 -2.18663e-014
lhumerus -30.1037 37.1335 15.5698
lradius 51.7142
lwrist 17.9753
lhand -39.0066 14.7115
lfingers 7.12502
lthumb -12.0101 44.3469
rfemur 15.7006 10.8076 28.5336
rtibia 3.49861e-014
rfoot -5.30706 -8.45647
rtoes -21.0608
lfemur -80.6616 3.51 -20.9359
ltibia 107.076
lfoot -28.3187 16.0666
ltoes -10.179
242
root -4.78844 17.4304 8.27935 -183.238 68.8274 -187.064
lowerback 9.56157 -2.01419 6.86053
upperback 1.57644 -1.98544 -1.68726
thorax -4.01288 -1.06386 -5.38376
lowerneck -1.81055 6.96854 -4.62186
upperneck -17.5173 9.74163 -2.32642
head -5.10648 5.47609 -0.377399
rclavicle 6.55989e-014 9.93923e-015
rhumerus -16.459 -13.6189 -37.9704
rradius 43.3886
rwrist 5.23211
rhand -6.7057 -33.4386
rfingers 7.12502
rthumb 19.1539 -62.5154
lclavicle 6.55989e-014 9.93923e-015
lhumerus -28.7411 36.8933 14.468
lradius 52.3009
lwrist 18.6218
lhand -38.8801 14.5894
lfingers 7.12502
lthumb -11.8881 44.2319
rfemur 15.6385 9.42422 28.6372
rtibia -6.36111e-015
rfoot -2.97523 -6.6262
rtoes -22.9454
lfemur -80.4696 2.75251 -21.7442
ltibia 106.952
lfoot -28.1131 14.8239
ltoes -10.0987
